<?xml version="1.0" encoding="UTF-8"?>
<svg width="198.98mm" height="70.983mm" version="1.1" viewBox="0 0 198.98 70.983">
    <g transform="translate(-6.3621 -13.37)">
        <g aria-label="hello">
            <path 
                transform="matrix(.26458 0 0 .26458 6.3621 13.37)" 
                d="m140.2 2.5c-2.3437 0-4.6875 0.39063-7.0312 1.1719-2.3437 0.65104-4.5573 1.6276-6.6406 2.9297-2.0833 1.1719-3.9714 2.5391-5.6641 4.1016-1.5625 1.5625-2.7344 3.1901-3.5156 4.8828l-64.453 126.76c-2.474 5.0781-5.5339 11.263-9.1797 18.555-3.6458 7.1614-7.5521 14.779-11.719 22.852-4.0364 7.9427-8.0729 16.016-12.109 24.219-4.0364 8.0729-7.6172 15.43-10.742 22.07-2.3437 4.8177-4.0365 8.9193-5.0781 12.305-1.0417 3.2552-1.5625 6.3802-1.5625 9.375 0 4.0364 1.237 7.3568 3.7109 9.9609 2.474 2.7344 5.9896 4.1016 10.547 4.1016 2.8646 0 5.599-0.91147 8.2031-2.7344 2.7344-1.8229 5.2734-4.2318 7.6172-7.2266 2.474-2.9948 4.8177-6.3802 7.0312-10.156 2.2135-3.9062 4.2969-7.8125 6.25-11.719 2.0833-3.9062 4.0365-7.6823 5.8594-11.328 1.9531-3.776 3.8412-7.0964 5.6641-9.9609 4.0364-6.3802 8.3985-13.021 13.086-19.922 4.6875-7.0312 9.7656-13.477 15.234-19.336 5.4687-5.8594 11.458-10.677 17.969-14.453 6.5104-3.776 13.607-5.6641 21.289-5.6641 2.2135 0 3.8411 0.65105 4.8828 1.9531 1.0417 1.1719 1.5625 2.7344 1.5625 4.6875 0 2.2135-0.45573 4.2969-1.3672 6.25-0.78125 1.8229-1.9531 3.8412-3.5156 6.0547-2.8646 4.9479-6.1849 10.026-9.9609 15.234-3.776 5.0781-7.3568 10.417-10.742 16.016-3.2552 5.4687-6.0547 11.198-8.3984 17.188-2.2135 5.8594-3.3203 12.109-3.3203 18.75 1e-6 9.1146 2.7995 15.82 8.3984 20.117 5.5989 4.1666 13.021 6.25 22.266 6.25 7.1614 0 14.453-1.3021 21.875-3.9062 7.5521-2.6042 15.104-6.1198 22.656-10.547 7.5521-4.4271 15.039-9.5052 22.461-15.234 0.53184-0.41054 1.0574-0.83288 1.5879-1.2461 2.1159 5.317 4.9007 10.1 8.373 14.332 4.2969 5.0781 9.4401 9.1146 15.43 12.109 6.1198 2.9948 13.086 4.4922 20.898 4.4922 9.1146 0 18.359-1.237 27.734-3.7109 9.375-2.3437 18.359-5.3386 26.953-8.9844 8.7239-3.6458 16.927-7.6172 24.609-11.914 4.8892-2.7705 9.3484-5.4276 13.473-7.9942-0.12619 1.6967-0.19336 3.3858-0.19336 5.0645 0 3.776 0.45573 7.3568 1.3672 10.742 0.91146 3.3854 2.4089 6.3151 4.4922 8.7891 2.2135 2.474 5.0781 4.4271 8.5938 5.8594 3.6458 1.4323 8.138 2.1484 13.477 2.1484 7.8125 0 15.82-1.5625 24.023-4.6875 8.3333-3.125 16.667-7.2917 25-12.5 8.4635-5.3385 16.927-11.458 25.391-18.359 0.46903-0.38245 0.93566-0.77922 1.4043-1.1641-0.4105 3.0863-0.62304 6.1442-0.62304 9.1719 0 3.776 0.45574 7.3568 1.3672 10.742 0.91148 3.3854 2.4089 6.3151 4.4922 8.7891 2.2136 2.474 5.0782 4.4271 8.5938 5.8594 3.6458 1.4323 8.138 2.1484 13.477 2.1484 7.8125 0 15.82-1.5625 24.023-4.6875 8.3333-3.125 16.667-7.2917 25-12.5 7.9308-5.0025 15.862-10.7 23.793-17.074 0.6773 4.4972 1.9816 8.5026 3.9414 11.996 2.9948 5.3385 6.6406 9.7005 10.938 13.086 4.4271 3.2552 9.0495 5.599 13.867 7.0312 4.8177 1.4323 9.0495 2.1484 12.695 2.1484 9.6354 0 18.685-1.237 27.148-3.7109 8.5937-2.3437 16.536-5.6641 23.828-9.9609 7.4219-4.2969 14.128-9.4401 20.117-15.43 5.9896-5.9896 11.328-12.63 16.016-19.922 3.2552 2.3438 6.4453 4.0365 9.5703 5.0781 3.2552 1.0417 6.5755 1.5625 9.9609 1.5625 4.9479 0 9.8958-1.3672 14.844-4.1016 4.9479-2.7344 9.7005-6.0547 14.258-9.9609 4.5573-3.9062 8.8542-8.0729 12.891-12.5 4.0364-4.4271 7.6172-8.3334 10.742-11.719 5.4688-4.8177 9.1797-9.4401 11.133-13.867 2.0833-4.4271 3.125-8.3333 3.125-11.719s-0.71615-5.9896-2.1484-7.8125c-1.4323-1.9531-3.0599-2.9297-4.8828-2.9297-1.3021 0-2.4089 0.45573-3.3203 1.3672-1.6927 1.9531-3.8412 4.362-6.4453 7.2266-2.474 2.7344-5.2734 5.6641-8.3984 8.7891-3.125 3.125-6.4453 6.25-9.9609 9.375-3.5156 3.125-7.0313 5.9245-10.547 8.3984-3.5156 2.474-6.9662 4.4922-10.352 6.0547-3.2552 1.5625-6.25 2.3438-8.9844 2.3438-1.9531 0-3.776-0.32552-5.4688-0.97656s-3.1901-1.7578-4.4922-3.3203c2.0833-5.4687 3.6458-10.677 4.6875-15.625 1.0417-5.0781 1.5625-9.5703 1.5625-13.477 0-7.5521-1.6276-13.867-4.8828-18.945-3.125-5.2083-7.0964-9.375-11.914-12.5-4.8177-3.125-10.091-5.3386-15.82-6.6406-5.5989-1.3021-10.872-1.9531-15.82-1.9531-11.458 0-21.875 1.888-31.25 5.6641-9.375 3.6458-17.708 8.5287-25 14.648-7.2916 5.9896-13.607 12.826-18.945 20.508-5.2083 7.5521-9.5703 15.234-13.086 23.047-2.0881 4.7383-3.8508 9.4005-5.2949 13.99-2.7781 2.1528-5.6179 4.3207-8.5723 6.5176-5.0781 3.6458-10.221 7.2266-15.43 10.742-5.0781 3.3854-10.026 6.4453-14.844 9.1797-4.6875 2.6042-9.1146 4.7526-13.281 6.4453-4.0364 1.5625-7.4219 2.3438-10.156 2.3438-2.2135 0-3.7109-0.58594-4.4922-1.7578-0.78126-1.1719-1.1719-2.7344-1.1719-4.6875 0-3.125 0.65105-6.6406 1.9531-10.547 1.4323-4.0364 2.8646-7.5521 4.2969-10.547 3.2552-7.0312 7.0964-15.3 11.523-24.805 4.5573-9.6354 9.375-19.792 14.453-30.469 5.2083-10.677 10.482-21.615 15.82-32.812 5.4688-11.328 10.742-22.201 15.82-32.617 5.2083-10.417 10.026-20.052 14.453-28.906 4.5573-8.8541 8.4636-16.341 11.719-22.461 1.6927-2.9948 3.0599-5.7943 4.1016-8.3984 1.1719-2.6042 1.7578-5.0781 1.7578-7.4219 0-4.9479-1.6927-8.5287-5.0781-10.742-3.2552-2.2135-6.9011-3.3203-10.938-3.3203-4.0365 0-8.0729 1.0417-12.109 3.125-3.9062 2.0833-7.0313 5.6641-9.375 10.742l-59.18 125.98c-3.9062 8.3333-8.2031 17.513-12.891 27.539-2.3618 5.0516-4.7064 10.12-7.0352 15.205-2.6609 2.227-5.4664 4.5444-8.5898 7.0606-4.5573 3.6458-9.375 7.3568-14.453 11.133-5.0781 3.6458-10.221 7.2266-15.43 10.742-5.0781 3.3854-10.026 6.4453-14.844 9.1797-4.6875 2.6042-9.1146 4.7526-13.281 6.4453-4.0365 1.5625-7.4219 2.3438-10.156 2.3438-2.2135 0-3.711-0.58594-4.4922-1.7578-0.78126-1.1719-1.1719-2.7344-1.1719-4.6875 0-3.125 0.65105-6.6406 1.9531-10.547 1.4323-4.0364 2.8646-7.5521 4.2969-10.547 3.2552-7.0312 7.0964-15.3 11.523-24.805 4.5573-9.6354 9.375-19.792 14.453-30.469 5.2083-10.677 10.482-21.615 15.82-32.812 5.4688-11.328 10.742-22.201 15.82-32.617 5.2083-10.417 10.026-20.052 14.453-28.906 4.5573-8.8541 8.4636-16.341 11.719-22.461 1.6927-2.9948 3.0599-5.7943 4.1016-8.3984 1.1719-2.6042 1.7578-5.0781 1.7578-7.4219 0-4.9479-1.6927-8.5287-5.0781-10.742-3.2552-2.2135-6.901-3.3203-10.938-3.3203-4.0364 0-8.0729 1.0417-12.109 3.125-3.9062 2.0833-7.0312 5.6641-9.375 10.742l-59.18 125.98c-3.9062 8.3333-8.2031 17.513-12.891 27.539-4.5958 9.83-9.127 19.725-13.598 29.68-3.3411 2.047-7.5089 4.4484-12.574 7.2344-5.0781 2.8646-10.805 5.9245-17.186 9.1797-6.3802 3.125-12.956 6.0547-19.727 8.7891-6.6406 2.7344-13.411 5.013-20.312 6.8359-6.7708 1.6927-13.151 2.5391-19.141 2.5391-5.5989 0-10.091-1.0417-13.477-3.125-3.3854-2.2135-5.4036-5.2083-6.0547-8.9844 17.708-6.5104 32.422-12.956 44.141-19.336 11.849-6.5104 21.289-12.826 28.32-18.945 7.0312-6.25 11.977-12.37 14.842-18.359 2.8646-5.9896 4.2969-11.719 4.2969-17.188 0-9.2448-2.6673-16.471-8.0059-21.68-5.3385-5.2083-13.412-7.8125-24.219-7.8125-10.286 0-19.987 1.4974-29.102 4.4922-8.9843 2.9948-17.253 6.9662-24.805 11.914s-14.388 10.677-20.508 17.188c-5.9896 6.3802-11.068 12.956-15.234 19.727s-7.3568 13.542-9.5703 20.312c-2.1299 6.3896-3.2242 12.292-3.3047 17.717-2.7358 2.1352-5.6023 4.2392-8.6094 6.3066-4.0364 2.8646-8.138 5.4688-12.305 7.8125-4.0364 2.2135-8.0729 4.0365-12.109 5.4688-4.0364 1.3021-7.8125 1.9531-11.328 1.9531-2.7344 0-5.013-0.32552-6.8359-0.97656-1.6927-0.65104-2.5391-2.2786-2.5391-4.8828v-0.78125c0.13021-0.26042 0.19531-0.52084 0.19531-0.78125 0.52083-5.2083 1.8229-10.026 3.9062-14.453 2.2135-4.4271 4.7526-8.6589 7.6172-12.695 2.9948-4.1666 6.1198-8.2031 9.375-12.109 3.2552-4.0364 6.25-8.2032 8.9844-12.5 2.7344-4.4271 4.9479-9.0495 6.6406-13.867 1.8229-4.9479 2.7344-10.352 2.7344-16.211 0-4.4271-0.84636-8.138-2.5391-11.133-1.6927-3.125-3.9714-5.5339-6.8359-7.2266-2.8646-1.8229-6.1849-3.125-9.9609-3.9063-3.776-0.78124-7.7474-1.1719-11.914-1.1719-7.0312 0-13.411 1.0417-19.141 3.125-5.7292 1.9531-11.003 4.4922-15.82 7.6172-4.8177 3.125-9.3099 6.5755-13.477 10.352-4.0364 3.776-7.8776 7.4219-11.523 10.938 5.8594-9.7656 11.458-19.596 16.797-29.492 5.3385-10.026 10.612-20.052 15.82-30.078 5.3385-10.156 10.612-20.182 15.82-30.078 5.3385-10.026 10.872-19.922 16.602-29.688 1.8229-2.7344 3.4505-5.6641 4.8828-8.7891 1.4323-3.2552 2.1484-6.3151 2.1484-9.1797 0-3.125-1.1068-5.7292-3.3203-7.8125-2.2135-2.2135-6.1849-3.3203-11.914-3.3203zm140.62 142.97h1.7578c0.52084 0 1.1068 0.0651 1.7578 0.19531 1.5625 0.26042 2.9297 0.97657 4.1016 2.1484 1.3021 1.1719 1.9531 2.7344 1.9531 4.6875 1e-5 2.3437-1.1068 5.1432-3.3203 8.3984-2.2135 3.125-6.25 6.5104-12.109 10.156-1.3021 0.78124-3.5807 2.2786-6.8359 4.4922-3.125 2.2135-6.836 4.6875-11.133 7.4219s-8.9193 5.599-13.867 8.5938c-4.8177 2.9948-9.5052 5.6641-14.062 8.0078 0.78125-2.474 1.888-5.5339 3.3203-9.1797 1.5625-3.6458 3.4505-7.4219 5.6641-11.328 2.2135-4.0364 4.6875-8.0729 7.4219-12.109 2.8646-4.0364 6.0547-7.6172 9.5703-10.742 3.6458-3.2552 7.6172-5.8594 11.914-7.8125 4.2969-1.9531 8.9193-2.9297 13.867-2.9297zm341.4 7.8125c4.0365 0 7.2266 0.78126 9.5703 2.3438 2.3437 1.4323 4.1016 3.3203 5.2734 5.6641 1.3021 2.3438 2.0833 4.9479 2.3438 7.8125 0.39063 2.7344 0.58594 5.4037 0.58594 8.0078 0 6.6406-1.3021 13.216-3.9062 19.727-2.6042 6.5104-6.1198 12.37-10.547 17.578-4.4271 5.0781-9.5052 9.2448-15.234 12.5-5.5989 3.125-11.393 4.6875-17.383 4.6875-3.9062 0-7.0313-0.84636-9.375-2.5391-2.3437-1.6927-4.1667-3.776-5.4688-6.25-1.1719-2.6042-1.9531-5.3386-2.3438-8.2031-0.39062-2.9948-0.58593-5.7292-0.58593-8.2031 0-6.6406 1.3021-13.086 3.9062-19.336 2.6041-6.3802 6.0547-12.044 10.352-16.992 4.4271-5.0781 9.4401-9.1146 15.039-12.109 5.7292-3.125 11.654-4.6875 17.773-4.6875z"
                fill="#d5f6ff" 
                stroke="#000" 
                stroke-width="5"
                stroke-dasharray="3765"
                stroke-dashoffset="3765"
            />
        </g>
    </g>
</svg>
